<?xml version="1.0" standalone="no"?>
<!DOCTYPE svg PUBLIC "-//W3C//DTD SVG 20010904//EN"
 "http://www.w3.org/TR/2001/REC-SVG-20010904/DTD/svg10.dtd">
<svg version="1.0" xmlns="http://www.w3.org/2000/svg"
 width="656.000000pt" height="907.000000pt" viewBox="0 0 656.000000 907.000000"
 preserveAspectRatio="xMidYMid meet">

<g transform="translate(0.000000,907.000000) scale(0.100000,-0.100000)"
fill="#000000" stroke="none">
<path d="M4513 8986 c-45 -38 -90 -147 -137 -338 -41 -162 -106 -513 -106
-568 0 -23 -4 -21 -52 26 -103 99 -246 187 -326 200 -32 5 -43 2 -65 -17 -101
-90 -5 -668 178 -1064 41 -91 42 -73 -13 -290 -88 -345 -192 -844 -192 -924 0
-89 43 -170 152 -287 l59 -63 -43 -11 c-121 -32 -262 -76 -341 -108 -48 -19
-90 -32 -93 -30 -2 3 -20 103 -39 223 -59 368 -126 674 -177 802 -29 72 -66
99 -236 171 -529 223 -1566 476 -2385 582 -250 32 -460 30 -528 -5 -72 -38
-85 -131 -45 -327 94 -461 372 -1142 709 -1738 302 -533 546 -871 682 -942
124 -65 544 0 979 151 49 17 95 31 101 31 8 0 5 -26 -12 -82 -41 -140 -57
-294 -44 -425 32 -324 173 -615 419 -865 l76 -78 -35 -37 c-81 -85 -173 -233
-214 -344 -12 -35 -46 -75 -141 -170 -69 -68 -149 -152 -177 -187 -28 -34 -52
-62 -54 -62 -2 0 -36 24 -76 53 -285 210 -563 399 -667 453 -52 26 -64 28
-206 32 -162 4 -334 -10 -649 -54 -334 -47 -739 -115 -753 -126 -34 -29 -33
-57 3 -202 59 -235 248 -773 299 -850 8 -13 26 -26 41 -30 27 -7 37 -3 555
209 559 229 878 347 939 347 22 0 79 -23 165 -66 185 -94 172 -80 150 -168
-26 -103 -24 -249 4 -350 l22 -78 -108 -108 c-151 -152 -256 -330 -308 -527
-28 -104 -26 -272 4 -346 30 -75 81 -132 149 -165 142 -70 321 -8 504 175 126
126 262 328 304 453 l15 44 134 -4 c89 -3 178 1 267 13 156 20 226 23 291 12
l48 -8 -39 -77 c-101 -203 -131 -411 -82 -573 90 -298 412 -327 606 -55 106
149 172 327 220 591 3 11 17 28 33 37 43 26 142 125 190 190 127 172 254 429
367 740 15 40 23 48 63 63 26 10 111 46 189 81 665 296 1125 681 1150 963 7
71 -21 143 -65 168 l-29 17 47 60 c214 273 326 649 290 976 -29 272 -121 524
-274 753 -41 61 -100 141 -131 176 -31 35 -54 69 -52 75 3 7 49 75 104 152
186 261 299 460 359 629 23 65 28 97 28 175 1 85 -3 103 -32 175 -114 278
-420 682 -889 1175 l-109 114 2 316 c3 324 -3 436 -31 575 -29 143 -63 195
-126 195 -60 0 -143 -85 -266 -274 -48 -72 -89 -135 -93 -139 -4 -4 -37 83
-74 193 -111 336 -204 550 -258 595 -39 33 -87 33 -125 1z m606 -1970 c148
-177 334 -416 475 -611 60 -82 121 -166 136 -185 88 -117 334 -503 409 -644
l42 -78 -53 -77 c-76 -111 -178 -253 -201 -278 l-19 -22 -92 76 c-364 304
-787 455 -1278 457 l-188 1 0 50 c0 132 82 628 198 1200 l18 90 57 -109 c96
-184 190 -336 207 -333 19 3 27 37 80 323 55 301 57 309 76 293 8 -7 68 -76
133 -153z m-3559 -530 c505 -98 1438 -412 1747 -588 71 -40 72 -42 82 -92 19
-96 50 -331 61 -461 6 -71 13 -131 15 -133 2 -2 6 27 10 65 3 37 7 76 8 87 3
23 128 79 319 141 419 136 835 156 1220 59 679 -171 1202 -683 1343 -1314 22
-99 31 -355 15 -447 -11 -69 -12 -71 -60 -102 -152 -98 -351 -409 -443 -688
-38 -116 -46 -125 -207 -220 -252 -148 -524 -234 -849 -268 -162 -18 -255 -18
-416 -4 -189 16 -525 80 -525 99 0 4 22 41 49 82 70 105 146 252 183 349 26
71 31 99 32 176 1 92 1 93 -32 125 -31 31 -36 33 -100 32 -37 -1 -85 -8 -108
-17 l-40 -15 4 56 c4 44 1 58 -12 68 -34 25 -120 -20 -194 -100 l-38 -41 -18
78 c-55 246 -262 452 -468 465 -90 5 -144 -9 -200 -51 -102 -78 -137 -244 -92
-437 5 -24 5 -25 -11 -5 -29 36 -103 178 -135 260 -109 283 -93 622 42 890 26
53 37 64 100 100 38 22 65 41 60 43 -5 1 -85 -27 -178 -64 -93 -36 -229 -86
-302 -110 -152 -51 -145 -52 -243 33 -139 119 -301 344 -504 698 -153 267
-375 709 -362 721 3 3 131 -58 285 -135 258 -129 312 -153 312 -134 0 29 -361
682 -426 770 -38 50 -37 50 76 29z m1706 -2681 c164 -79 292 -265 319 -462 6
-44 4 -54 -15 -76 -14 -16 -42 -30 -74 -38 -74 -17 -185 -73 -272 -135 l-75
-54 -98 95 c-79 76 -104 109 -129 163 -83 179 -83 349 -1 460 73 99 200 116
345 47z m3059 -232 c-38 -109 -113 -254 -180 -348 -58 -81 -230 -264 -239
-254 -10 10 55 175 117 292 84 161 144 245 241 341 93 92 102 88 61 -31z
m-2485 -150 c0 -16 -9 -47 -20 -70 -10 -24 -15 -45 -10 -48 6 -3 42 6 82 20
114 42 186 36 213 -15 48 -93 -30 -320 -195 -574 -63 -97 -145 -210 -175 -242
-23 -25 -171 -207 -178 -220 -14 -24 2 -15 49 28 l46 42 -7 -167 c-7 -160 -7
-167 11 -167 18 0 296 217 432 337 l60 53 6 -73 c3 -39 8 -111 12 -160 3 -48
10 -90 14 -92 9 -6 71 58 170 173 35 39 66 72 70 72 3 0 7 -42 9 -92 3 -146
36 -328 59 -328 28 0 199 232 340 460 l16 25 23 -51 22 -50 -28 -109 c-73
-274 -185 -584 -283 -780 -128 -256 -284 -446 -415 -507 -59 -28 -71 -30 -138
-25 -72 5 -106 16 -384 116 -152 55 -214 60 -446 31 -228 -28 -341 -24 -473
19 -51 17 -105 37 -121 46 -17 8 -34 15 -38 15 -15 -1 42 -41 102 -72 33 -17
61 -32 63 -33 7 -7 -54 -145 -99 -223 -107 -186 -271 -362 -394 -423 -36 -17
-68 -29 -72 -26 -3 4 10 24 30 46 37 42 74 105 88 153 4 15 6 28 4 28 -1 0
-18 -24 -36 -52 -54 -85 -148 -188 -170 -188 -54 0 -123 52 -154 116 l-17 35
50 52 c52 56 128 164 120 172 -2 3 -42 -36 -88 -86 -71 -77 -85 -88 -93 -74
-13 25 8 176 37 261 69 202 222 422 358 512 l40 26 39 -44 c21 -25 39 -42 39
-37 0 4 -16 39 -36 78 -53 107 -74 183 -81 295 -8 132 13 223 77 352 65 128
156 247 315 410 l130 134 6 -31 c10 -49 16 -46 22 12 13 125 131 332 266 468
126 125 304 230 432 254 24 5 42 17 59 43 37 54 120 142 164 174 51 37 76 37
76 1z m2287 -468 c31 -35 29 -77 -6 -150 -80 -168 -284 -360 -584 -548 -163
-102 -696 -362 -711 -346 -2 2 13 64 35 137 21 73 55 206 74 295 20 89 37 162
38 163 1 1 49 11 107 24 311 66 651 229 850 408 31 27 64 52 75 54 40 8 99
-10 122 -37z m-2347 -2065 c153 -59 269 -78 344 -57 l28 8 -7 -57 c-22 -178
-131 -441 -225 -547 -29 -31 -61 -62 -71 -68 -20 -10 -20 -9 1 30 26 52 50
144 50 195 0 52 -7 43 -30 -43 -22 -77 -83 -210 -103 -223 -21 -14 -91 -8
-132 11 -66 30 -69 40 -30 95 32 45 75 151 75 185 0 9 -12 -7 -26 -34 -14 -28
-45 -79 -67 -114 l-41 -64 -26 54 c-22 48 -25 67 -25 169 1 135 19 216 76 335
50 105 96 168 118 160 9 -4 50 -20 91 -35z"/>
<path d="M3833 4466 c-141 -46 -261 -183 -294 -337 -16 -72 -6 -192 20 -261
27 -71 93 -145 163 -183 48 -27 62 -30 148 -30 82 0 103 4 153 27 66 31 156
112 191 172 36 62 66 170 66 240 -1 165 -75 293 -208 357 -58 28 -176 35 -239
15z m267 -69 c54 -36 75 -81 75 -162 -1 -111 -55 -191 -148 -216 -144 -38
-246 131 -173 286 13 28 32 57 42 66 62 53 148 64 204 26z"/>
<path d="M5825 4397 c-58 -23 -91 -46 -134 -92 -115 -125 -149 -332 -79 -481
27 -58 96 -120 150 -134 237 -64 455 251 368 534 -44 141 -183 220 -305 173z
m67 -76 c29 -25 32 -35 36 -94 5 -80 -18 -137 -79 -192 -36 -32 -45 -36 -87
-33 -40 3 -49 8 -69 37 -58 86 -2 260 97 300 42 17 68 12 102 -18z"/>
<path d="M5073 3723 c-7 -2 -13 -11 -13 -18 0 -27 70 -35 91 -9 10 13 10 17
-2 25 -15 9 -56 11 -76 2z"/>
<path d="M4330 3513 c0 -3 7 -14 15 -23 12 -14 13 -26 5 -70 -15 -80 -12 -271
6 -358 54 -266 243 -400 437 -309 178 82 408 363 502 610 14 38 35 81 47 97
29 40 19 46 -23 14 -94 -72 -258 -111 -414 -99 -166 12 -364 59 -522 123 -29
12 -53 19 -53 15z m733 -294 c37 -10 77 -40 77 -57 0 -16 -62 -102 -70 -97 -4
3 -14 -3 -21 -13 -13 -15 -12 -16 4 -3 33 26 17 -1 -40 -67 -67 -77 -84 -92
-97 -85 -5 4 -6 1 -2 -5 15 -25 -142 -118 -218 -128 -66 -9 -137 20 -191 77
-40 43 -103 149 -89 149 4 0 2 6 -4 13 -15 18 -32 120 -21 131 5 6 39 18 76
28 197 52 508 82 596 57z"/>
</g>
</svg>
